<svg width="512" height="512" viewBox="0 0 512 512" fill="none" xmlns="http://www.w3.org/2000/svg">
<g clip-path="url(#clip0)">
<path d="M240.83 285.558H271.171C275.315 285.558 278.675 282.199 278.675 278.055C278.675 273.911 275.315 270.551 271.171 270.551H240.83C236.686 270.551 233.326 273.911 233.326 278.055C233.326 282.199 236.685 285.558 240.83 285.558Z" fill="black"/>
<path d="M441.83 418.95C439.787 412.507 433.874 408.177 427.115 408.177H173.251C169.107 408.177 165.747 411.537 165.747 415.681C165.747 419.825 169.107 423.185 173.251 423.185H427.116C427.304 423.185 427.469 423.306 427.525 423.484L450.646 496.434C450.669 496.506 450.711 496.641 450.583 496.817C450.455 496.992 450.313 496.992 450.237 496.992H61.7632C61.6872 496.992 61.5461 496.992 61.4171 496.817C61.289 496.641 61.331 496.506 61.354 496.434L84.4747 423.484C84.5318 423.305 84.6958 423.185 84.8839 423.185H139.379C143.523 423.185 146.882 419.825 146.882 415.681C146.882 411.537 143.523 408.177 139.379 408.177H84.8849C78.1255 408.177 72.2115 412.507 70.1695 418.95L47.0488 491.9C45.545 496.643 46.3684 501.667 49.3079 505.682C52.2474 509.697 56.7877 512 61.7632 512H450.236C455.212 512 459.752 509.697 462.691 505.682C465.631 501.667 466.454 496.643 464.95 491.9L441.83 418.95Z" fill="black"/>
<path d="M454.073 0H57.9272C41.3809 0 27.9191 13.4618 27.9191 30.0082V284.152C27.9191 300.698 41.3809 314.16 57.9272 314.16H205.269C204.754 329.236 203.273 354.249 200.042 368.274H167.744C163.6 368.274 160.24 371.634 160.24 375.778C160.24 379.922 163.6 383.282 167.744 383.282H344.258C348.402 383.282 351.762 379.922 351.762 375.778C351.762 371.634 348.402 368.274 344.258 368.274H311.96C308.729 354.249 307.248 329.236 306.733 314.16H454.075C470.621 314.16 484.083 300.698 484.083 284.152V30.0082C484.081 13.4618 470.619 0 454.073 0V0ZM215.364 368.274C218.675 351.312 219.872 326.455 220.28 314.16H291.719C292.127 326.455 293.324 351.312 296.635 368.274H215.364ZM469.073 284.152C469.073 292.423 462.344 299.152 454.073 299.152H57.9272C49.6561 299.152 42.9267 292.423 42.9267 284.152V256.957H469.074V284.152H469.073ZM469.073 241.949H449.361V131.187C449.361 127.043 446.002 123.684 441.857 123.684C437.713 123.684 434.354 127.043 434.354 131.187V241.949H77.6462V50.8677C77.6462 49.7742 78.5357 48.8847 79.6292 48.8847H432.371C433.464 48.8847 434.354 49.7742 434.354 50.8677V96.853C434.354 100.997 437.713 104.357 441.857 104.357C446.002 104.357 449.361 100.997 449.361 96.853V50.8677C449.361 41.499 441.739 33.8771 432.371 33.8771H79.6292C70.2605 33.8771 62.6386 41.499 62.6386 50.8677V241.949H42.9267V30.0082C42.9267 21.737 49.6561 15.0076 57.9272 15.0076H454.073C462.344 15.0076 469.073 21.737 469.073 30.0082V241.949Z" fill="black"/>
<path d="M139.379 439.157H129.197C125.053 439.157 121.693 442.517 121.693 446.661C121.693 450.805 125.053 454.165 129.197 454.165H139.379C143.524 454.165 146.883 450.805 146.883 446.661C146.883 442.517 143.524 439.157 139.379 439.157Z" fill="black"/>
<path d="M169.926 454.165H180.108C184.252 454.165 187.612 450.805 187.612 446.661C187.612 442.517 184.252 439.157 180.108 439.157H169.926C165.782 439.157 162.422 442.517 162.422 446.661C162.422 450.805 165.782 454.165 169.926 454.165Z" fill="black"/>
<path d="M210.655 454.165H220.837C224.981 454.165 228.341 450.805 228.341 446.661C228.341 442.517 224.981 439.157 220.837 439.157H210.655C206.51 439.157 203.151 442.517 203.151 446.661C203.151 450.805 206.51 454.165 210.655 454.165Z" fill="black"/>
<path d="M251.384 454.165H261.566C265.71 454.165 269.07 450.805 269.07 446.661C269.07 442.517 265.71 439.157 261.566 439.157H251.384C247.24 439.157 243.88 442.517 243.88 446.661C243.88 450.805 247.24 454.165 251.384 454.165V454.165Z" fill="black"/>
<path d="M292.113 454.165H302.295C306.439 454.165 309.799 450.805 309.799 446.661C309.799 442.517 306.439 439.157 302.295 439.157H292.113C287.969 439.157 284.609 442.517 284.609 446.661C284.609 450.805 287.969 454.165 292.113 454.165Z" fill="black"/>
<path d="M332.842 454.165H343.025C347.169 454.165 350.528 450.805 350.528 446.661C350.528 442.517 347.169 439.157 343.025 439.157H332.842C328.698 439.157 325.339 442.517 325.339 446.661C325.339 450.805 328.698 454.165 332.842 454.165Z" fill="black"/>
<path d="M372.621 454.165H382.804C386.948 454.165 390.307 450.805 390.307 446.661C390.307 442.517 386.948 439.157 382.804 439.157H372.621C368.477 439.157 365.118 442.517 365.118 446.661C365.118 450.805 368.477 454.165 372.621 454.165Z" fill="black"/>
<path d="M139.379 466.014H129.197C125.053 466.014 121.693 469.373 121.693 473.518C121.693 477.662 125.053 481.021 129.197 481.021H139.379C143.524 481.021 146.883 477.662 146.883 473.518C146.883 469.373 143.524 466.014 139.379 466.014Z" fill="black"/>
<path d="M169.926 481.021H180.108C184.252 481.021 187.612 477.662 187.612 473.518C187.612 469.373 184.252 466.014 180.108 466.014H169.926C165.782 466.014 162.422 469.373 162.422 473.518C162.422 477.662 165.782 481.021 169.926 481.021Z" fill="black"/>
<path d="M210.655 481.021H220.837C224.981 481.021 228.341 477.662 228.341 473.518C228.341 469.373 224.981 466.014 220.837 466.014H210.655C206.51 466.014 203.151 469.373 203.151 473.518C203.151 477.662 206.51 481.021 210.655 481.021Z" fill="black"/>
<path d="M251.384 481.021H261.566C265.71 481.021 269.07 477.662 269.07 473.518C269.07 469.373 265.71 466.014 261.566 466.014H251.384C247.24 466.014 243.88 469.373 243.88 473.518C243.88 477.662 247.24 481.021 251.384 481.021V481.021Z" fill="black"/>
<path d="M292.113 481.021H302.295C306.439 481.021 309.799 477.662 309.799 473.518C309.799 469.373 306.439 466.014 302.295 466.014H292.113C287.969 466.014 284.609 469.373 284.609 473.518C284.609 477.662 287.969 481.021 292.113 481.021Z" fill="black"/>
<path d="M332.842 481.021H343.025C347.169 481.021 350.528 477.662 350.528 473.518C350.528 469.373 347.169 466.014 343.025 466.014H332.842C328.698 466.014 325.339 469.373 325.339 473.518C325.339 477.662 328.698 481.021 332.842 481.021Z" fill="black"/>
<path d="M372.621 481.021H382.804C386.948 481.021 390.307 477.662 390.307 473.518C390.307 469.373 386.948 466.014 382.804 466.014H372.621C368.477 466.014 365.118 469.373 365.118 473.518C365.118 477.662 368.477 481.021 372.621 481.021Z" fill="black"/>
<path d="M169.488 114.528V109.528H164.488V114.528H169.488ZM169.488 161.472H164.488V166.472H169.488V161.472ZM209.52 161.472H214.52V156.472H209.52V161.472ZM209.52 174V179H214.52V174H209.52ZM172.224 174L169.723 178.33L170.884 179H172.224V174ZM155.52 164.352H150.52V167.238L153.019 168.682L155.52 164.352ZM155.52 111.648L153.019 107.318L150.52 108.762V111.648H155.52ZM172.224 102V97H170.884L169.723 97.6703L172.224 102ZM209.52 102H214.52V97H209.52V102ZM209.52 114.528V119.528H214.52V114.528H209.52ZM164.488 114.528V161.472H174.488V114.528H164.488ZM169.488 166.472H209.52V156.472H169.488V166.472ZM204.52 161.472V174H214.52V161.472H204.52ZM209.52 169H172.224V179H209.52V169ZM174.725 169.67L158.021 160.022L153.019 168.682L169.723 178.33L174.725 169.67ZM160.52 164.352V111.648H150.52V164.352H160.52ZM158.021 115.978L174.725 106.33L169.723 97.6703L153.019 107.318L158.021 115.978ZM172.224 107H209.52V97H172.224V107ZM204.52 102V114.528H214.52V102H204.52ZM209.52 109.528H169.488V119.528H209.52V109.528ZM318.41 114.528V109.528H313.41V114.528H318.41ZM318.41 161.472H313.41V166.472H318.41V161.472ZM358.442 161.472H363.442V156.472H358.442V161.472ZM358.442 174V179H363.442V174H358.442ZM321.146 174L318.645 178.33L319.806 179H321.146V174ZM304.442 164.352H299.442V167.238L301.941 168.682L304.442 164.352ZM304.442 111.648L301.941 107.318L299.442 108.762V111.648H304.442ZM321.146 102V97H319.806L318.645 97.6703L321.146 102ZM358.442 102H363.442V97H358.442V102ZM358.442 114.528V119.528H363.442V114.528H358.442ZM313.41 114.528V161.472H323.41V114.528H313.41ZM318.41 166.472H358.442V156.472H318.41V166.472ZM353.442 161.472V174H363.442V161.472H353.442ZM358.442 169H321.146V179H358.442V169ZM323.647 169.67L306.943 160.022L301.941 168.682L318.645 178.33L323.647 169.67ZM309.442 164.352V111.648H299.442V164.352H309.442ZM306.943 115.978L323.647 106.33L318.645 97.6703L301.941 107.318L306.943 115.978ZM321.146 107H358.442V97H321.146V107ZM353.442 102V114.528H363.442V102H353.442ZM358.442 109.528H318.41V119.528H358.442V109.528Z" fill="black"/>
</g>
<defs>
<clipPath id="clip0">
<rect width="512" height="512" fill="white"/>
</clipPath>
</defs>
</svg>
